0
SECTION
2
HEADER
9
$INSUNITS
70
4
9
$ACADVER
1
AC1014
9
$HANDSEED
5
FFFF
0
ENDSEC
0
SECTION
2
TABLES
0
TABLE
2
VPORT
5
8
100
AcDbSymbolTable
0
ENDTAB
0
TABLE
2
LTYPE
5
5
100
AcDbSymbolTable
0
LTYPE
5
14
100
AcDbSymbolTableRecord
100
AcDbLinetypeTableRecord
2
BYBLOCK
70
0
0
LTYPE
5
15
100
AcDbSymbolTableRecord
100
AcDbLinetypeTableRecord
2
BYLAYER
70
0
0
ENDTAB
0
TABLE
2
LAYER
5
2
100
AcDbSymbolTable
70
2
0
LAYER
5
50
100
AcDbSymbolTableRecord
100
AcDbLayerTableRecord
2
0
70
0
6
CONTINUOUS
0
ENDTAB
0
TABLE
2
STYLE
5
3
100
AcDbSymbolTable
70
1
0
STYLE
5
11
100
AcDbSymbolTableRecord
100
AcDbTextStyleTableRecord
2
STANDARD
70
0
0
ENDTAB
0
TABLE
2
VIEW
5
6
100
AcDbSymbolTable
70
0
0
ENDTAB
0
TABLE
2
UCS
5
7
100
AcDbSymbolTable
70
0
0
ENDTAB
0
TABLE
2
APPID
5
9
100
AcDbSymbolTable
70
2
0
APPID
5
12
100
AcDbSymbolTableRecord
100
AcDbRegAppTableRecord
2
ACAD
70
0
0
ENDTAB
0
TABLE
2
DIMSTYLE
5
A
100
AcDbSymbolTable
70
1
0
ENDTAB
0
TABLE
2
BLOCK_RECORD
5
1
100
AcDbSymbolTable
70
1
0
BLOCK_RECORD
5
1F
100
AcDbSymbolTableRecord
100
AcDbBlockTableRecord
2
*MODEL_SPACE
0
BLOCK_RECORD
5
1B
100
AcDbSymbolTableRecord
100
AcDbBlockTableRecord
2
*PAPER_SPACE
0
ENDTAB
0
ENDSEC
0
SECTION
2
BLOCKS
0
BLOCK
5
20
100
AcDbEntity
100
AcDbBlockBegin
2
*MODEL_SPACE
0
ENDBLK
5
21
100
AcDbEntity
100
AcDbBlockEnd
0
BLOCK
5
1C
100
AcDbEntity
100
AcDbBlockBegin
2
*PAPER_SPACE
0
ENDBLK
5
1D
100
AcDbEntity
100
AcDbBlockEnd
0
ENDSEC
0
SECTION
2
ENTITIES
0
CIRCLE
5
100
100
AcDbEntity
8
0
100
AcDbCircle
10
80.175880450456489
20
-61.000000000000007
30
0
40
1.6000000000000014
210
0
220
-0
230
1
0
CIRCLE
5
101
100
AcDbEntity
8
0
100
AcDbCircle
10
-84.511838154674763
20
-61
30
0
40
1.6000000000000014
210
0
220
-0
230
1
0
ARC
5
102
100
AcDbEntity
8
0
100
AcDbCircle
10
56.90600090988692
20
54.630995699984659
30
0
40
3.6926493624778445
210
0
220
-0
230
1
100
AcDbArc
50
26.472260955446316
51
237.79196645013374
0
SPLINE
5
103
100
AcDbEntity
8
0
100
AcDbSpline
70
4
71
5
72
21
73
15
74
0
42
0.000000001
43
0.0000000001
44
0.0000000001
40
0
40
0
40
0
40
0
40
0
40
0
40
0.10000000000000001
40
0.20000000000000001
40
0.30000000000000004
40
0.40000000000000002
40
0.5
40
0.59999999999999998
40
0.69999999999999996
40
0.79999999999999993
40
0.89999999999999991
40
1
40
1
40
1
40
1
40
1
40
1
41
1
41
1
41
1
41
1
41
1
41
1
41
1
41
1
41
1
41
1
41
1
41
1
41
1
41
1
41
1
10
60.21147701281015
20
56.277047657612826
30
0
10
60.610065878245805
20
55.476631872750659
30
0
10
61.285618760677316
20
53.863176187108081
30
0
10
61.934093752236322
20
51.405122099297799
30
0
10
62.121200372379739
20
48.065682086520816
30
0
10
61.516892616186837
20
43.866582390997657
30
0
10
60.44843236422372
20
39.74542699502399
30
0
10
59.307060268561642
20
35.809049219115977
30
0
10
58.448470586353878
20
32.150563386019904
30
0
10
58.123782151943892
20
28.821318385614816
30
0
10
58.451005948694828
20
25.820302600984938
30
0
10
59.273059313497583
20
23.664916563049392
30
0
10
60.208794725091053
20
22.175042359837779
30
0
10
60.974236197549573
20
21.236444494712696
30
0
10
61.392359468991849
20
20.780807266546898
30
0
0
ARC
5
104
100
AcDbEntity
8
0
100
AcDbCircle
10
61.208160941739536
20
20.611777971555728
30
0
40
0.25000000000000067
210
0
220
0
230
1
100
AcDbArc
50
-137.43832997695222
51
42.540965840713845
0
SPLINE
5
105
100
AcDbEntity
8
0
100
AcDbSpline
70
4
71
5
72
21
73
15
74
0
42
0.000000001
43
0.0000000001
44
0.0000000001
40
-1
40
-1
40
-1
40
-1
40
-1
40
-1
40
-0.89999999999999991
40
-0.79999999999999993
40
-0.69999999999999996
40
-0.59999999999999998
40
-0.5
40
-0.40000000000000002
40
-0.30000000000000004
40
-0.20000000000000001
40
-0.10000000000000001
40
0
40
0
40
0
40
0
40
0
40
0
41
1
41
1
41
1
41
1
41
1
41
1
41
1
41
1
41
1
41
1
41
1
41
1
41
1
41
1
41
1
10
61.02402350626538
20
20.442682126310746
30
0
10
60.44800355766295
20
21.069934877721618
30
0
10
59.406631761468134
20
22.332071916890229
30
0
10
58.176557329340795
20
24.248168005858354
30
0
10
57.168153407618647
20
26.851418543433923
30
0
10
56.776727582487979
20
30.194861896526728
30
0
10
57.008342103604164
20
33.626858543029705
30
0
10
57.581132743555621
20
37.122376551019805
30
0
10
58.195046580028617
20
40.619187278936771
30
0
10
58.542860706084895
20
43.992423058954287
30
0
10
58.327009645222219
20
47.071635808027565
30
0
10
57.492379398067882
20
49.15919076892596
30
0
10
56.404797108262329
20
50.448270543908329
30
0
10
55.462957330286372
20
51.175788576002773
30
0
10
54.937837568756933
20
51.506576973750917
30
0
0
CIRCLE
5
106
100
AcDbEntity
8
0
100
AcDbCircle
10
76.136718025711303
20
39.85840724230026
30
0
40
1.6000000000000014
210
0
220
-0
230
1
0
CIRCLE
5
107
100
AcDbEntity
8
0
100
AcDbCircle
10
-67.409768140773934
20
36.050935414448048
30
0
40
1.6000000000000014
210
0
220
-0
230
1
0
ARC
5
108
100
AcDbEntity
8
0
100
AcDbCircle
10
-81.942279251377883
20
-2.6832440059773202
30
0
40
0.2500000000000086
210
0
220
0
230
1
100
AcDbArc
50
159.44435462820474
51
331.67481834922455
0
SPLINE
5
109
100
AcDbEntity
8
0
100
AcDbSpline
70
4
71
5
72
20
73
14
74
0
42
0.000000001
43
0.0000000001
44
0.0000000001
40
-1
40
-1
40
-1
40
-1
40
-1
40
-1
40
-0.89999999999999991
40
-0.79999999999999993
40
-0.69999999999999996
40
-0.59999999999999998
40
-0.5
40
-0.40000000000000002
40
-0.30000000000000004
40
-0.20000000000000001
40
-0.11083323492200697
40
-0.11083323492200697
40
-0.11083323492200697
40
-0.11083323492200697
40
-0.11083323492200697
40
-0.11083323492200697
41
1
41
1
41
1
41
1
41
1
41
1
41
1
41
1
41
1
41
1
41
1
41
1
41
1
41
1
10
-82.176362158357264
20
-2.5954647791631991
30
0
10
-81.898603779766091
20
-1.8547600468672791
30
0
10
-81.400942659951482
20
-0.36745275498942687
30
0
10
-80.828004110593184
20
1.8812019501000752
30
0
10
-80.403529739076959
20
4.9028904901374677
30
0
10
-80.388939437557099
20
8.6522913359362228
30
0
10
-80.810738817850819
20
12.289362073092448
30
0
10
-81.549690866136132
20
15.732289840014232
30
0
10
-82.435379114150123
20
18.920240330343741
30
0
10
-83.198218529808457
20
21.781074311209785
30
0
10
-83.476149983146129
20
23.894242193397758
30
0
10
-83.368200777426921
20
25.401523409357946
30
0
10
-83.132457687404028
20
26.36761862849546
30
0
10
-82.982166701035652
20
26.819147427469026
30
0
0
SPLINE
5
110
100
AcDbEntity
8
0
100
AcDbSpline
70
4
71
5
72
21
73
15
74
0
42
0.000000001
43
0.0000000001
44
0.0000000001
40
0
40
0
40
0
40
0
40
0
40
0
40
0.10000000000000001
40
0.20000000000000001
40
0.30000000000000004
40
0.40000000000000002
40
0.5
40
0.59999999999999998
40
0.69999999999999996
40
0.79999999999999993
40
0.89999999999999991
40
1
40
1
40
1
40
1
40
1
40
1
41
1
41
1
41
1
41
1
41
1
41
1
41
1
41
1
41
1
41
1
41
1
41
1
41
1
41
1
41
1
10
-82.98216670103568
20
26.819147427469034
30
0
10
-82.9577218927639
20
26.892588524548824
30
0
10
-82.907429559553933
20
27.038927288896062
30
0
10
-82.827783216847322
20
27.256805232484332
30
0
10
-82.713747896047565
20
27.543769171134265
30
0
10
-82.561655057770963
20
27.895178500399052
30
0
10
-82.405067282566506
20
28.237918967581411
30
0
10
-82.250228417254135
20
28.57149425108544
30
0
10
-82.104329746801326
20
28.897193986262749
30
0
10
-81.975311983477013
20
29.21944909806291
30
0
10
-81.871330262513879
20
29.54448121892916
30
0
10
-81.814256757000905
20
29.811907460320782
30
0
10
-81.788821378436438
20
30.01901560441582
30
0
10
-81.779947515237069
20
30.160315253927386
30
0
10
-81.777531470316106
20
30.231772054469076
30
0
0
ARC
5
111
100
AcDbEntity
8
0
100
AcDbCircle
10
-80.156837737069708
20
30.176974346861513
30
0
40
1.6216198585806789
210
0
220
-0
230
1
100
AcDbArc
50
62.135874948046585
51
178.06349484773094
0
SPLINE
5
112
100
AcDbEntity
8
0
100
AcDbSpline
70
4
71
5
72
21
73
15
74
0
42
0.000000001
43
0.0000000001
44
0.0000000001
40
-1
40
-1
40
-1
40
-1
40
-1
40
-1
40
-0.89999999999999991
40
-0.79999999999999993
40
-0.69999999999999996
40
-0.59999999999999998
40
-0.5
40
-0.40000000000000002
40
-0.30000000000000004
40
-0.20000000000000001
40
-0.10000000000000001
40
0
40
0
40
0
40
0
40
0
40
0
41
1
41
1
41
1
41
1
41
1
41
1
41
1
41
1
41
1
41
1
41
1
41
1
41
1
41
1
41
1
10
-79.398930941946332
20
31.61058107663402
30
0
10
-79.359304774458366
20
31.589631857451295
30
0
10
-79.281461693880232
20
31.546958192152093
30
0
10
-79.168923986246739
20
31.480622538464548
30
0
10
-79.025772437941725
20
31.388471889655793
30
0
10
-78.849927301463325
20
31.272164235054557
30
0
10
-78.667247076515025
20
31.16056954084123
30
0
10
-78.469003637488498
20
31.058546515736257
30
0
10
-78.250874859445048
20
30.967899860848664
30
0
10
-78.015616170858223
20
30.885656126721997
30
0
10
-77.769626813382246
20
30.806403564911236
30
0
10
-77.570394728656254
20
30.740447615629137
30
0
10
-77.42253517028324
20
30.687209670071208
30
0
10
-77.325063073256658
20
30.649720003288664
30
0
10
-77.276602277095051
20
30.630475714419472
30
0
0
ARC
5
113
100
AcDbEntity
8
0
100
AcDbCircle
10
-78.614345265709829
20
27.261783281639747
30
0
40
3.6245889436258549
210
-0
220
0
230
1
100
AcDbArc
50
-36.765358931674861
51
68.341455556798977
0
SPLINE
5
114
100
AcDbEntity
8
0
100
AcDbSpline
70
4
71
5
72
21
73
15
74
0
42
0.000000001
43
0.0000000001
44
0.0000000001
40
0
40
0
40
0
40
0
40
0
40
0
40
0.10000000000000001
40
0.20000000000000001
40
0.30000000000000004
40
0.40000000000000002
40
0.5
40
0.59999999999999998
40
0.69999999999999996
40
0.79999999999999993
40
0.89999999999999991
40
1
40
1
40
1
40
1
40
1
40
1
41
1
41
1
41
1
41
1
41
1
41
1
41
1
41
1
41
1
41
1
41
1
41
1
41
1
41
1
41
1
10
-75.710711004604747
20
25.092324112170918
30
0
10
-75.981906554418956
20
24.729352224531034
30
0
10
-76.492457701098701
20
24.012169258102372
30
0
10
-77.162768902179849
20
22.962669429412067
30
0
10
-77.865313905785129
20
21.578345719983165
30
0
10
-78.432895700527766
20
19.681510818406181
30
0
10
-78.719939059918843
20
17.413969444283573
30
0
10
-78.797300343327549
20
14.645848438969635
30
0
10
-78.799969624808398
20
11.414368597521465
30
0
10
-78.900021152149037
20
7.8589104866425217
30
0
10
-79.283164226971309
20
4.1695104409837089
30
0
10
-79.956111328700629
20
1.2664892517824711
30
0
10
-80.728111007904801
20
-0.81358960667626556
30
0
10
-81.369691245430971
20
-2.1478494230357441
30
0
10
-81.722212025022344
20
-2.8018627898362691
30
0
0
ARC
5
115
100
AcDbEntity
8
0
100
AcDbCircle
10
88.476063696165554
20
22.403659813711087
30
0
40
3.2723681930779769
210
0
220
-0
230
1
100
AcDbArc
50
41.896192152536365
51
203.52020319381285
0
SPLINE
5
116
100
AcDbEntity
8
0
100
AcDbSpline
70
4
71
5
72
21
73
15
74
0
42
0.000000001
43
0.0000000001
44
0.0000000001
40
0
40
0
40
0
40
0
40
0
40
0
40
0.10000000000000001
40
0.20000000000000001
40
0.30000000000000004
40
0.40000000000000002
40
0.5
40
0.59999999999999998
40
0.69999999999999996
40
0.79999999999999993
40
0.89999999999999991
40
1
40
1
40
1
40
1
40
1
40
1
41
1
41
1
41
1
41
1
41
1
41
1
41
1
41
1
41
1
41
1
41
1
41
1
41
1
41
1
41
1
10
90.91187036055419
20
24.588891948928911
30
0
10
91.228843834666947
20
24.235571915786768
30
0
10
91.735043874339794
20
23.486580792903236
30
0
10
92.111095695703341
20
22.236058080280824
30
0
10
91.91706695424493
20
20.309383650992324
30
0
10
90.88414201395085
20
17.442793159707509
30
0
10
89.488987861840855
20
14.093483944741784
30
0
10
88.081760248223944
20
10.265550268515417
30
0
10
86.852859059193946
20
6.0070846385788377
30
0
10
85.896088991959871
20
1.3813146491445116
30
0
10
85.237240740239159
20
-3.5465888060876258
30
0
10
84.941119895331099
20
-7.6867501677218906
30
0
10
84.839327050936205
20
-10.886434939120617
30
0
10
84.823235827042851
20
-13.059761993786251
30
0
10
84.828132410344509
20
-14.156476395123859
30
0
0
ARC
5
117
100
AcDbEntity
8
0
100
AcDbCircle
10
84.578134902254732
20
-14.157592615938944
30
0
40
0.25000000000000583
210
0
220
0
230
1
100
AcDbArc
50
-179.5733875597212
51
0.25581981680889415
0
SPLINE
5
118
100
AcDbEntity
8
0
100
AcDbSpline
70
4
71
5
72
21
73
15
74
0
42
0.000000001
43
0.0000000001
44
0.0000000001
40
-1
40
-1
40
-1
40
-1
40
-1
40
-1
40
-0.89999999999999991
40
-0.79999999999999993
40
-0.69999999999999996
40
-0.59999999999999998
40
-0.5
40
-0.40000000000000002
40
-0.30000000000000004
40
-0.20000000000000001
40
-0.10000000000000001
40
0
40
0
40
0
40
0
40
0
40
0
41
1
41
1
41
1
41
1
41
1
41
1
41
1
41
1
41
1
41
1
41
1
41
1
41
1
41
1
41
1
10
84.328141832199464
20
-14.159454046667481
30
0
10
84.321289426151239
20
-13.239232438182061
30
0
10
84.312057290920265
20
-11.445684041139565
30
0
10
84.311629765350432
20
-8.8961735050369999
30
0
10
84.344243767738362
20
-5.7325919819370821
30
0
10
84.471739870912202
20
-1.9579287485974353
30
0
10
84.716429310347635
20
1.8630195257740425
30
0
10
85.09093644808452
20
5.8193154311157382
30
0
10
85.569131972047757
20
9.8558569835132186
30
0
10
86.066251049101581
20
13.392053195401211
30
0
10
86.39083458384134
20
16.295016828959444
30
0
10
86.331379426246116
20
18.276679027047081
30
0
10
86.01867607794965
20
19.694435520103298
30
0
10
85.678548188412606
20
20.631370121591154
30
0
10
85.475565771584769
20
21.097747950048358
30
0
0
ARC
5
119
100
AcDbEntity
8
0
100
AcDbCircle
10
-73.121332537291281
20
24.627806621371352
30
0
40
12.771446248499032
210
0
220
0
230
1
100
AcDbArc
50
170.70427939813658
51
190.01571452532502
0
SPLINE
5
120
100
AcDbEntity
8
0
100
AcDbSpline
70
4
71
5
72
21
73
15
74
0
42
0.000000001
43
0.0000000001
44
0.0000000001
40
0
40
0
40
0
40
0
40
0
40
0
40
0.10000000000000001
40
0.20000000000000001
40
0.30000000000000004
40
0.40000000000000002
40
0.5
40
0.59999999999999998
40
0.69999999999999996
40
0.79999999999999993
40
0.89999999999999991
40
1
40
1
40
1
40
1
40
1
40
1
41
1
41
1
41
1
41
1
41
1
41
1
41
1
41
1
41
1
41
1
41
1
41
1
41
1
41
1
41
1
10
-85.698143087378611
20
22.406618726210578
30
0
10
-85.586237448475231
20
21.772986594934927
30
0
10
-85.341222380804595
20
20.541154519082319
30
0
10
-84.910109022634629
20
18.799667148525973
30
0
10
-84.232368761831935
20
16.654130337817094
30
0
10
-83.349983366282515
20
14.073820322501794
30
0
10
-82.601267552071974
20
11.375937156105358
30
0
10
-82.15239374724824
20
8.3766229780929375
30
0
10
-82.116150283517953
20
5.0179359895359079
30
0
10
-82.546013091637249
20
1.3728607617118529
30
0
10
-83.468209124167771
20
-2.4248293569638353
30
0
10
-84.60868181654385
20
-5.4612046730459332
30
0
10
-85.69345947449753
20
-7.6793581084404758
30
0
10
-86.519056033470875
20
-9.1238526870371253
30
0
10
-86.957459065759906
20
-9.8375316857874875
30
0
0
ARC
5
121
100
AcDbEntity
8
0
100
AcDbCircle
10
-76.306510693049006
20
-16.380260379677129
30
0
40
12.499999999999986
210
0
220
0
230
1
100
AcDbArc
50
148.43817540671279
51
184.68550618940893
0
SPLINE
5
122
100
AcDbEntity
8
0
100
AcDbSpline
70
4
71
5
72
21
73
15
74
0
42
0.000000001
43
0.0000000001
44
0.0000000001
40
0
40
0
40
0
40
0
40
0
40
0
40
0.10000000000000001
40
0.20000000000000001
40
0.30000000000000004
40
0.40000000000000002
40
0.5
40
0.59999999999999998
40
0.69999999999999996
40
0.79999999999999993
40
0.89999999999999991
40
1
40
1
40
1
40
1
40
1
40
1
41
1
41
1
41
1
41
1
41
1
41
1
41
1
41
1
41
1
41
1
41
1
41
1
41
1
41
1
41
1
10
-88.764736724066438
20
-17.401340278646813
30
0
10
-88.721397475332381
20
-17.93012373358334
30
0
10
-88.60260973421299
20
-18.970327146022868
30
0
10
-88.328106941777577
20
-20.478545527855239
30
0
10
-87.781649890156615
20
-22.393978607305836
30
0
10
-86.868863306832907
20
-24.67635724147307
30
0
10
-85.823160266601803
20
-26.905432945729917
30
0
10
-84.756418559541927
20
-29.138597469236114
30
0
10
-83.787333749413207
20
-31.420421950122638
30
0
10
-83.033569841234339
20
-33.769527275766876
30
0
10
-82.607563715552971
20
-36.187601847527333
30
0
10
-82.609160857949192
20
-38.171697500111456
30
0
10
-82.837325898137308
20
-39.68371442411491
30
0
10
-83.094877003204857
20
-40.701733759374257
30
0
10
-83.250014373512258
20
-41.213245405005736
30
0
0
ARC
5
123
100
AcDbEntity
8
0
100
AcDbCircle
10
-71.288078358474763
20
-44.84120444172995
30
0
40
12.499999999999993
210
0
220
0
230
1
100
AcDbArc
50
163.12787119161121
51
168.0036089104814
0
SPLINE
5
124
100
AcDbEntity
8
0
100
AcDbSpline
70
4
71
5
72
21
73
15
74
0
42
0.000000001
43
0.0000000001
44
0.0000000001
40
-1
40
-1
40
-1
40
-1
40
-1
40
-1
40
-0.89999999999999991
40
-0.79999999999999993
40
-0.69999999999999996
40
-0.59999999999999998
40
-0.5
40
-0.40000000000000002
40
-0.30000000000000004
40
-0.20000000000000001
40
-0.10000000000000001
40
0
40
0
40
0
40
0
40
0
40
0
41
1
41
1
41
1
41
1
41
1
41
1
41
1
41
1
41
1
41
1
41
1
41
1
41
1
41
1
41
1
10
-83.515087041026064
20
-42.243078448477206
30
0
10
-83.602421468711668
20
-42.654081921122788
30
0
10
-83.777791341078895
20
-43.467021633549237
30
0
10
-84.042955045396965
20
-44.659230278301294
30
0
10
-84.412944574474906
20
-46.195400157268061
30
0
10
-84.964737751229151
20
-48.033600825645514
30
0
10
-85.669720218602151
20
-49.802792264472735
30
0
10
-86.564757371645854
20
-51.524298631244925
30
0
10
-87.624342098845943
20
-53.231920786483187
30
0
10
-88.728683461326398
20
-54.975819896568652
30
0
10
-89.711045801779505
20
-56.813068284599446
30
0
10
-90.258521523558073
20
-58.401989626602536
30
0
10
-90.470232552305433
20
-59.680457596309246
30
0
10
-90.51412504780096
20
-60.573997865446842
30
0
10
-90.511757679123889
20
-61.031075716150539
30
0
0
ARC
5
125
100
AcDbEntity
8
0
100
AcDbCircle
10
-84.511838154674763
20
-61
30
0
40
5.9999999999999973
210
0
220
0
230
1
100
AcDbArc
50
180.2967525568701
51
312.43991926497284
0
SPLINE
5
126
100
AcDbEntity
8
0
100
AcDbSpline
70
4
71
5
72
21
73
15
74
0
42
0.000000001
43
0.0000000001
44
0.0000000001
40
0
40
0
40
0
40
0
40
0
40
0
40
0.10000000000000001
40
0.20000000000000001
40
0.30000000000000004
40
0.40000000000000002
40
0.5
40
0.59999999999999998
40
0.69999999999999996
40
0.79999999999999993
40
0.89999999999999991
40
1
40
1
40
1
40
1
40
1
40
1
41
1
41
1
41
1
41
1
41
1
41
1
41
1
41
1
41
1
41
1
41
1
41
1
41
1
41
1
41
1
10
-80.462937820198391
20
-65.427912158283718
30
0
10
-80.222341980067725
20
-65.207910373524655
30
0
10
-79.742371568076379
20
-64.75830367350224
30
0
10
-79.026079785872469
20
-64.055084755261518
30
0
10
-78.076039854363955
20
-63.071810747236313
30
0
10
-76.884162034506986
20
-61.832298677707726
30
0
10
-75.672412290383349
20
-60.663096351627644
30
0
10
-74.426695841503204
20
-59.638584550770361
30
0
10
-73.138234775387957
20
-58.80778952380038
30
0
10
-71.810011829196043
20
-58.16333430566808
30
0
10
-70.45348369847963
20
-57.656765949765017
30
0
10
-69.356783619974067
20
-57.312676606104986
30
0
10
-68.533274869913001
20
-57.064553405236929
30
0
10
-67.984582413817677
20
-56.900178261518946
30
0
10
-67.710314810080689
20
-56.818249485971144
30
0
0
ARC
5
127
100
AcDbEntity
8
0
100
AcDbCircle
10
-71.288078358474763
20
-44.84120444172995
30
0
40
12.499999999999996
210
-0
220
0
230
1
100
AcDbArc
50
286.63185246496926
51
295.02564392786553
0
SPLINE
5
128
100
AcDbEntity
8
0
100
AcDbSpline
70
4
71
5
72
21
73
15
74
0
42
0.000000001
43
0.0000000001
44
0.0000000001
40
-1
40
-1
40
-1
40
-1
40
-1
40
-1
40
-0.89999999999999991
40
-0.79999999999999993
40
-0.69999999999999996
40
-0.59999999999999998
40
-0.5
40
-0.40000000000000002
40
-0.30000000000000004
40
-0.20000000000000001
40
-0.10000000000000001
40
0
40
0
40
0
40
0
40
0
40
0
41
1
41
1
41
1
41
1
41
1
41
1
41
1
41
1
41
1
41
1
41
1
41
1
41
1
41
1
41
1
10
-66.000280152760922
20
-56.167686249230862
30
0
10
-65.581948159181977
20
-55.972386843587138
30
0
10
-64.758813475661171
20
-55.625540375639495
30
0
10
-63.564696557288308
20
-55.2365185796505
30
0
10
-62.048782101726225
20
-54.966880168493766
30
0
10
-60.25217774665559
20
-54.97146859649412
30
0
10
-58.514510869206546
20
-55.224991549738661
30
0
10
-56.789957716967201
20
-55.630443902495728
30
0
10
-55.02935821040063
20
-56.099081914115672
30
0
10
-53.182822944244812
20
-56.558791740661164
30
0
10
-51.201921513884145
20
-56.951557850063317
30
0
10
-49.47490277087212
20
-57.176969249015983
30
0
10
-48.084627786289815
20
-57.282849332648752
30
0
10
-47.113560520585736
20
-57.323806345864313
30
0
10
-46.616971897968547
20
-57.336876854147008
30
0
0
ARC
5
129
100
AcDbEntity
8
0
100
AcDbCircle
10
-46.288078358474692
20
-44.841204441680389
30
0
40
12.500000000000002
210
0
220
0
230
1
100
AcDbArc
50
268.4922890648532
51
283.23682032273092
0
ARC
5
130
100
AcDbEntity
8
0
100
AcDbCircle
10
43.082882072906685
20
-48.000000000000007
30
0
40
12.5
210
0
220
0
230
1
100
AcDbArc
50
270.04285687236887
51
285.12022431696067
0
SPLINE
5
131
100
AcDbEntity
8
0
100
AcDbSpline
70
4
71
5
72
21
73
15
74
0
42
0.000000001
43
0.0000000001
44
0.0000000001
40
0
40
0
40
0
40
0
40
0
40
0
40
0.10000000000000001
40
0.20000000000000001
40
0.30000000000000004
40
0.40000000000000002
40
0.5
40
0.59999999999999998
40
0.69999999999999996
40
0.79999999999999993
40
0.89999999999999991
40
1
40
1
40
1
40
1
40
1
40
1
41
1
41
1
41
1
41
1
41
1
41
1
41
1
41
1
41
1
41
1
41
1
41
1
41
1
41
1
41
1
10
46.343448145708422
20
-60.067257720165522
30
0
10
47.060449715944763
20
-59.873524309620109
30
0
10
48.490777289207124
20
-59.518052063336498
30
0
10
50.625243646538529
20
-59.080821891253734
30
0
10
53.440985763147701
20
-58.688726409407494
30
0
10
56.865813195781676
20
-58.514645124833436
30
0
10
60.142642990080397
20
-58.657622397896063
30
0
10
63.227399984627446
20
-59.119696227104804
30
0
10
66.101716370373737
20
-59.89956138574145
30
0
10
68.801682910925749
20
-60.9798901533037
30
0
10
71.400613659284375
20
-62.334893281813706
30
0
10
73.464508288620493
20
-63.619900016378573
30
0
10
75.034865550218996
20
-64.689491947426333
30
0
10
76.0959390690101
20
-65.448865991268633
30
0
10
76.630019443316371
20
-65.840131167441996
30
0
0
ARC
5
132
100
AcDbEntity
8
0
100
AcDbCircle
10
80.175880450456489
20
-61.000000000000007
30
0
40
6.0000000000000124
210
0
220
0
230
1
100
AcDbArc
50
-126.22635802308221
51
18.889802170648252
0
SPLINE
5
133
100
AcDbEntity
8
0
100
AcDbSpline
70
4
71
5
72
21
73
15
74
0
42
0.000000001
43
0.0000000001
44
0.0000000001
40
-1
40
-1
40
-1
40
-1
40
-1
40
-1
40
-0.89999999999999991
40
-0.79999999999999993
40
-0.69999999999999996
40
-0.59999999999999998
40
-0.5
40
-0.40000000000000002
40
-0.30000000000000004
40
-0.20000000000000001
40
-0.10000000000000001
40
0
40
0
40
0
40
0
40
0
40
0
41
1
41
1
41
1
41
1
41
1
41
1
41
1
41
1
41
1
41
1
41
1
41
1
41
1
41
1
41
1
10
85.852738429515142
20
-59.057505859571805
30
0
10
85.663076398109652
20
-58.503226495788823
30
0
10
85.307424116765404
20
-57.402921147620731
30
0
10
84.844958299527079
20
-55.777222103217092
30
0
10
84.370438183775434
20
-53.658309282931221
30
0
10
84.016773946677077
20
-51.085466735615128
30
0
10
83.907001418814701
20
-48.579565799667321
30
0
10
84.043607101411752
20
-46.126855439336509
30
0
10
84.420374053614623
20
-43.706254971454037
30
0
10
85.012015288536247
20
-41.285874954871737
30
0
10
85.786060051584343
20
-38.829128169913012
30
0
10
86.526606625362859
20
-36.806335295268099
30
0
10
87.140178309354752
20
-35.244462464186782
30
0
10
87.573894632103247
20
-34.181651410378862
30
0
10
87.796920020492578
20
-33.644854851591553
30
0
0
ARC
5
134
100
AcDbEntity
8
0
100
AcDbCircle
10
76.253579481356482
20
-28.848888922027719
30
0
40
12.500000000000009
210
-0
220
0
230
1
100
AcDbArc
50
-22.561648356833732
51
16.51947979614658
0
SPLINE
5
135
100
AcDbEntity
8
0
100
AcDbSpline
70
4
71
5
72
21
73
15
74
0
42
0.000000001
43
0.0000000001
44
0.0000000001
40
0
40
0
40
0
40
0
40
0
40
0
40
0.10000000000000001
40
0.20000000000000001
40
0.30000000000000004
40
0.40000000000000002
40
0.5
40
0.59999999999999998
40
0.69999999999999996
40
0.79999999999999993
40
0.89999999999999991
40
1
40
1
40
1
40
1
40
1
40
1
41
1
41
1
41
1
41
1
41
1
41
1
41
1
41
1
41
1
41
1
41
1
41
1
41
1
41
1
41
1
10
88.2376184569668
20
-25.294622495456402
30
0
10
87.990285767153324
20
-24.460682593678591
30
0
10
87.547734950515874
20
-22.785189561144254
30
0
10
87.040242047545092
20
-20.24911176590459
30
0
10
86.657635930304778
20
-16.824323520116074
30
0
10
86.574375480953933
20
-12.485365396898869
30
0
10
86.778731994508931
20
-8.1092919153907737
30
0
10
87.181702681893981
20
-3.722706628251168
30
0
10
87.7405137487129
20
0.64215158512906401
30
0
10
88.48643078034705
20
4.947099031229488
30
0
10
89.497799829316676
20
9.1518275195365497
30
0
10
90.59772224811384
20
12.405084751335869
30
0
10
91.62594102979125
20
14.769481311759067
30
0
10
92.407567942505267
20
16.310368292384982
30
0
10
92.822419963628548
20
17.071966877927881
30
0
0
ARC
5
136
100
AcDbEntity
8
0
100
AcDbCircle
10
84.728949527045486
20
21.480578753335475
30
0
40
9.216296565097533
210
-0
220
0
230
1
100
AcDbArc
50
-28.57766786892552
51
59.337139083988774
0
SPLINE
5
137
100
AcDbEntity
8
0
100
AcDbSpline
70
4
71
5
72
21
73
15
74
0
42
0.000000001
43
0.0000000001
44
0.0000000001
40
0
40
0
40
0
40
0
40
0
40
0
40
0.10000000000000001
40
0.20000000000000001
40
0.30000000000000004
40
0.40000000000000002
40
0.5
40
0.59999999999999998
40
0.69999999999999996
40
0.79999999999999993
40
0.89999999999999991
40
1
40
1
40
1
40
1
40
1
40
1
41
1
41
1
41
1
41
1
41
1
41
1
41
1
41
1
41
1
41
1
41
1
41
1
41
1
41
1
41
1
10
89.429126724740769
20
29.408280607346775
30
0
10
89.125337217463027
20
29.58839138109937
30
0
10
88.522502636410834
20
29.945156507101025
30
0
10
87.632484796537568
20
30.469936481204691
30
0
10
86.484758343006774
20
31.156293857285956
30
0
10
85.171755539521541
20
32.03297052506823
30
0
10
84.046502751513458
20
32.978910677147056
30
0
10
83.161723700087748
20
34.041186459238887
30
0
10
82.532331349025355
20
35.250002139132349
30
0
10
82.102785472182148
20
36.601335470625088
30
0
10
81.778025751319007
20
38.071113786063634
30
0
10
81.518699506977654
20
39.317076160803168
30
0
10
81.285741048330081
20
40.279023605296629
30
0
10
81.108110011315347
20
40.930905723077025
30
0
10
81.013712080648276
20
41.259492533324078
30
0
0
ARC
5
138
100
AcDbEntity
8
0
100
AcDbCircle
10
76.136718025711303
20
39.85840724230026
30
0
40
5.0742596508864102
210
0
220
-0
230
1
100
AcDbArc
50
16.02854341719565
51
179.6583672029254
0
SPLINE
5
139
100
AcDbEntity
8
0
100
AcDbSpline
70
4
71
5
72
21
73
15
74
0
42
0.000000001
43
0.0000000001
44
0.0000000001
40
-1
40
-1
40
-1
40
-1
40
-1
40
-1
40
-0.89999999999999991
40
-0.79999999999999993
40
-0.69999999999999996
40
-0.59999999999999998
40
-0.5
40
-0.40000000000000002
40
-0.30000000000000004
40
-0.20000000000000001
40
-0.10000000000000001
40
0
40
0
40
0
40
0
40
0
40
0
41
1
41
1
41
1
41
1
41
1
41
1
41
1
41
1
41
1
41
1
41
1
41
1
41
1
41
1
41
1
10
71.062548576635024
20
39.888662930596503
30
0
10
71.060618379155969
20
39.56495027917677
30
0
10
71.073010223267275
20
38.919175733851475
30
0
10
71.140348960696898
20
37.95545991978603
30
0
10
71.317410989002298
20
36.671648717570406
30
0
10
71.624984460743633
20
35.023925405536701
30
0
10
71.940433457018088
20
33.286051915931566
30
0
10
72.178037930938245
20
31.427722356040221
30
0
10
72.257624502705141
20
29.460892652296529
30
0
10
72.114298227453006
20
27.45639177833791
30
0
10
71.69228851649379
20
25.512856324127103
30
0
10
71.094242313742214
20
24.090537674557666
30
0
10
70.48330327272862
20
23.136815719279124
30
0
10
70.001689206487399
20
22.55648980041893
30
0
10
69.742300690351001
20
22.28019971074162
30
0
0
ARC
5
140
100
AcDbEntity
8
0
100
AcDbCircle
10
66.097028661540605
20
25.702478459758495
30
0
40
4.9999999999999991
210
0
220
0
230
1
100
AcDbArc
50
238.01628167516324
51
316.80718002430302
0
SPLINE
5
141
100
AcDbEntity
8
0
100
AcDbSpline
70
4
71
5
72
21
73
15
74
0
42
0.000000001
43
0.0000000001
44
0.0000000001
40
0
40
0
40
0
40
0
40
0
40
0
40
0.10000000000000001
40
0.20000000000000001
40
0.30000000000000004
40
0.40000000000000002
40
0.5
40
0.59999999999999998
40
0.69999999999999996
40
0.79999999999999993
40
0.89999999999999991
40
1
40
1
40
1
40
1
40
1
40
1
41
1
41
1
41
1
41
1
41
1
41
1
41
1
41
1
41
1
41
1
41
1
41
1
41
1
41
1
41
1
10
63.448637391554314
20
21.461485217479002
30
0
10
62.998929335843513
20
21.7423163390459
30
0
10
62.189303898956226
20
22.355646389649714
30
0
10
61.244218650137192
20
23.430630948643429
30
0
10
60.490789576563472
20
25.146653604316327
30
0
10
60.222282727742147
20
27.61586506718799
30
0
10
60.419406747085148
20
30.231911803112475
30
0
10
60.881893278785462
20
32.829284827050273
30
0
10
61.45641534712145
20
35.296790251047696
30
0
10
62.071862548825465
20
37.618639784148627
30
0
10
62.712225040273424
20
39.835622648704337
30
0
10
63.257954900403945
20
41.578747283875515
30
0
10
63.698541434081818
20
42.897452681444712
30
0
10
64.008435935934628
20
43.785816239808582
30
0
10
64.167425980161156
20
44.232305038003396
30
0
0
ARC
5
142
100
AcDbEntity
8
0
100
AcDbCircle
10
50.036589539500724
20
49.264149777987313
30
0
40
15.000000000000025
210
-0
220
0
230
1
100
AcDbArc
50
-19.600288666323426
51
177.5586537189055
0
SPLINE
5
143
100
AcDbEntity
8
0
100
AcDbSpline
70
4
71
5
72
21
73
15
74
0
42
0.000000001
43
0.0000000001
44
0.0000000001
40
0
40
0
40
0
40
0
40
0
40
0
40
0.10000000000000001
40
0.20000000000000001
40
0.30000000000000004
40
0.40000000000000002
40
0.5
40
0.59999999999999998
40
0.69999999999999996
40
0.79999999999999993
40
0.89999999999999991
40
1
40
1
40
1
40
1
40
1
40
1
41
1
41
1
41
1
41
1
41
1
41
1
41
1
41
1
41
1
41
1
41
1
41
1
41
1
41
1
41
1
10
35.050204270290379
20
49.903099355649843
30
0
10
35.036199135233986
20
49.574612794205777
30
0
10
35.014055147016563
20
48.921779831831628
30
0
10
34.998443218494259
20
47.954950328856818
30
0
10
35.022460094183849
20
46.689703390264874
30
0
10
35.175722801464161
20
45.141713436024958
30
0
10
35.500853717012028
20
43.617808920659527
30
0
10
36.022376654711231
20
42.105173605919873
30
0
10
36.70942450517628
20
40.586976113996869
30
0
10
37.450010970294692
20
39.041862813853001
30
0
10
38.093447892434831
20
37.446833184152581
30
0
10
38.404739035770007
20
36.113375104786584
30
0
10
38.466358106945442
20
35.073249497724746
30
0
10
38.423257054742443
20
34.361001043395575
30
0
10
38.380660154685344
20
34.000168687884504
30
0
0
ARC
5
144
100
AcDbEntity
8
0
100
AcDbCircle
10
34.147706667709343
20
34.499876360650426
30
0
40
4.2623471211438577
210
0
220
0
230
1
100
AcDbArc
50
212.2999439949545
51
353.2672923038769
0
SPLINE
5
145
100
AcDbEntity
8
0
100
AcDbSpline
70
4
71
5
72
21
73
15
74
0
42
0.000000001
43
0.0000000001
44
0.0000000001
40
0
40
0
40
0
40
0
40
0
40
0
40
0.10000000000000001
40
0.20000000000000001
40
0.30000000000000004
40
0.40000000000000002
40
0.5
40
0.59999999999999998
40
0.69999999999999996
40
0.79999999999999993
40
0.89999999999999991
40
1
40
1
40
1
40
1
40
1
40
1
41
1
41
1
41
1
41
1
41
1
41
1
41
1
41
1
41
1
41
1
41
1
41
1
41
1
41
1
41
1
10
30.544905099978571
20
32.222284684190399
30
0
10
30.419606104957396
20
32.42048852395812
30
0
10
30.198676873525912
20
32.826702168022436
30
0
10
29.956285412243176
20
33.46544010419386
30
0
10
29.797906901809714
20
34.367718185735491
30
0
10
29.803016784341338
20
35.535382911245478
30
0
10
29.922540000134422
20
36.688447536007132
30
0
10
30.070128720741778
20
37.777089999877866
30
0
10
30.177042959299186
20
38.768158772908315
30
0
10
30.21478410596869
20
39.665672790708108
30
0
10
30.190792699502047
20
40.505148631052272
30
0
10
30.140700411006982
20
41.166772518325338
30
0
10
30.097298813329296
20
41.675867289739976
30
0
10
30.067538542989922
20
42.023574910707893
30
0
10
30.052453013721411
20
42.199507751770504
30
0
0
ARC
5
146
100
AcDbEntity
8
0
100
AcDbCircle
10
14.982750561435616
20
40.907341740929994
30
0
40
15.124999999999993
210
0
220
-0
230
1
100
AcDbArc
50
4.9008936653952357
51
31.48792939944785
0
SPLINE
5
147
100
AcDbEntity
8
0
100
AcDbSpline
70
4
71
5
72
21
73
15
74
0
42
0.000000001
43
0.0000000001
44
0.0000000001
40
-1
40
-1
40
-1
40
-1
40
-1
40
-1
40
-0.89999999999999991
40
-0.79999999999999993
40
-0.69999999999999996
40
-0.59999999999999998
40
-0.5
40
-0.40000000000000002
40
-0.30000000000000004
40
-0.20000000000000001
40
-0.10000000000000001
40
0
40
0
40
0
40
0
40
0
40
0
41
1
41
1
41
1
41
1
41
1
41
1
41
1
41
1
41
1
41
1
41
1
41
1
41
1
41
1
41
1
10
27.880597655643257
20
48.807415495929966
30
0
10
27.654600296099751
20
49.176384125525615
30
0
10
27.204770648749754
20
49.921103134073846
30
0
10
26.536523152676473
20
51.058525649683837
30
0
10
25.676098848937102
20
52.613527577950933
30
0
10
24.744760849485878
20
54.609309636772736
30
0
10
24.063731163566398
20
56.64241221877483
30
0
10
23.713376538027337
20
58.698431868034405
30
0
10
23.707642601073729
20
60.765722868775825
30
0
10
23.94004696684204
20
62.837896913575534
30
0
10
24.23560914957055
20
64.912457768667934
30
0
10
24.369908837756178
20
66.5739481636991
30
0
10
24.341991955858788
20
67.821559443021798
30
0
10
24.256522072336821
20
68.654069584605509
30
0
10
24.197070271603643
20
69.070517011427441
30
0
0
ARC
5
148
100
AcDbEntity
8
0
100
AcDbCircle
10
19.247255119256479
20
68.363884180606206
30
0
40
4.9999999999999982
210
0
220
-0
230
1
100
AcDbArc
50
8.1246161813518292
51
203.63928255559586
0
SPLINE
5
149
100
AcDbEntity
8
0
100
AcDbSpline
70
4
71
5
72
21
73
15
74
0
42
0.000000001
43
0.0000000001
44
0.0000000001
40
0
40
0
40
0
40
0
40
0
40
0
40
0.10000000000000001
40
0.20000000000000001
40
0.30000000000000004
40
0.40000000000000002
40
0.5
40
0.59999999999999998
40
0.69999999999999996
40
0.79999999999999993
40
0.89999999999999991
40
1
40
1
40
1
40
1
40
1
40
1
41
1
41
1
41
1
41
1
41
1
41
1
41
1
41
1
41
1
41
1
41
1
41
1
41
1
41
1
41
1
10
14.666814964572065
20
66.358998151587457
30
0
10
14.823572809161007
20
66.000863117713052
30
0
10
15.120069972721984
20
65.296846590509134
30
0
10
15.513744964649252
20
64.277586564893255
30
0
10
15.921422745677409
20
62.994909184789606
30
0
10
16.15243006188258
20
61.532886228246326
30
0
10
16.009685623974732
20
60.223957464147162
30
0
10
15.416228069247337
20
59.068560869606692
30
0
10
14.363681606672889
20
58.039043423015301
30
0
10
12.92154228762335
20
57.077693044331141
30
0
10
11.189392353471696
20
56.11577633253539
30
0
10
9.6554797187794552
20
55.291333093582438
30
0
10
8.4586568010254481
20
54.618151623535425
30
0
10
7.6449634918260809
20
54.141816214620661
30
0
10
7.2341633319975855
20
53.896761317946883
30
0
0
ARC
5
150
100
AcDbEntity
8
0
100
AcDbCircle
10
14.982750561435616
20
40.907341740929994
30
0
40
15.124999999999996
210
0
220
0
230
1
100
AcDbArc
50
120.81737274253609
51
170.14729171455579
0
SPLINE
5
151
100
AcDbEntity
8
0
100
AcDbSpline
70
4
71
5
72
21
73
15
74
0
42
0.000000001
43
0.0000000001
44
0.0000000001
40
0
40
0
40
0
40
0
40
0
40
0
40
0.10000000000000001
40
0.20000000000000001
40
0.30000000000000004
40
0.40000000000000002
40
0.5
40
0.59999999999999998
40
0.69999999999999996
40
0.79999999999999993
40
0.89999999999999991
40
1
40
1
40
1
40
1
40
1
40
1
41
1
41
1
41
1
41
1
41
1
41
1
41
1
41
1
41
1
41
1
41
1
41
1
41
1
41
1
41
1
10
0.080830696133076807
20
43.495470278715871
30
0
10
-0.0030012212119727433
20
43.012783079764255
30
0
10
-0.14535437889457575
20
42.039633372746472
30
0
10
-0.28295889809857033
20
40.556582146868159
30
0
10
-0.31603171021334336
20
38.543653340491552
30
0
10
-0.1183571184099666
20
36.028911414862989
30
0
10
0.29532749635261085
20
33.589524502014619
30
0
10
0.88209484929148096
20
31.291845540293014
30
0
10
1.5705959162305747
20
29.1769176364975
30
0
10
2.2400516262820807
20
27.228898602362683
30
0
10
2.7303335016894641
20
25.380493860807057
30
0
10
2.8500053128611977
20
23.915733483001446
30
0
10
2.7273915051388919
20
22.792349416083614
30
0
10
2.5432857236164303
20
22.02787360589031
30
0
10
2.4256387950296379
20
21.641745175445489
30
0
0
ARC
5
152
100
AcDbEntity
8
0
100
AcDbCircle
10
0.034177753403741851
20
22.370383691024735
30
0
40
2.4999999999999991
210
0
220
0
230
1
100
AcDbArc
50
203.32334107114477
51
343.05489082488083
0
SPLINE
5
153
100
AcDbEntity
8
0
100
AcDbSpline
70
4
71
5
72
21
73
15
74
0
42
0.000000001
43
0.0000000001
44
0.0000000001
40
0
40
0
40
0
40
0
40
0
40
0
40
0.10000000000000001
40
0.20000000000000001
40
0.30000000000000004
40
0.40000000000000002
40
0.5
40
0.59999999999999998
40
0.69999999999999996
40
0.79999999999999993
40
0.89999999999999991
40
1
40
1
40
1
40
1
40
1
40
1
41
1
41
1
41
1
41
1
41
1
41
1
41
1
41
1
41
1
41
1
41
1
41
1
41
1
41
1
41
1
10
-2.2615351675610933
20
21.380584628327334
30
0
10
-2.449847536179476
20
21.817351194499437
30
0
10
-2.8132537008833731
20
22.686004995894457
30
0
10
-3.3186921799775626
20
23.974363263791023
30
0
10
-3.9010289528071347
20
25.677950275740436
30
0
10
-4.412573624248127
20
27.864195752190035
30
0
10
-4.64267554994625
20
30.197812845102018
30
0
10
-4.55298317899579
20
32.751945275032533
30
0
10
-4.1797267097692794
20
35.539413664023847
30
0
10
-3.6307284999723821
20
38.513038863443391
30
0
10
-3.0421748290035011
20
41.599625740928417
30
0
10
-2.6503885639437201
20
44.095197288781414
30
0
10
-2.4502490181064833
20
45.952463712675673
30
0
10
-2.3650170667309047
20
47.180310036979748
30
0
10
-2.3344500406085134
20
47.79165055942758
30
0
0
ARC
5
154
100
AcDbEntity
8
0
100
AcDbCircle
10
-9.6718620036640335
20
48.158521157580353
30
0
40
7.3465780028105083
210
-0
220
0
230
1
100
AcDbArc
50
-2.8624052261116306
51
171.85685088887388
0
SPLINE
5
155
100
AcDbEntity
8
0
100
AcDbSpline
70
4
71
5
72
12
73
6
74
0
42
0.000000001
43
0.0000000001
44
0.0000000001
40
0
40
0
40
0
40
0
40
0
40
0
40
0.046655410207819631
40
0.046655410207819631
40
0.046655410207819631
40
0.046655410207819631
40
0.046655410207819631
40
0.046655410207819631
41
1
41
1
41
1
41
1
41
1
41
1
10
-16.944366408047927
20
49.19914022313516
30
0
10
-16.966737944350761
20
49.042793773525915
30
0
10
-16.984871764778717
20
48.886013560475661
30
0
10
-16.998768000941325
20
48.728799611502474
30
0
10
-17.008463598988474
20
48.57117160903659
30
0
10
-17.014025492982963
20
48.413165316152174
30
0
0
SPLINE
5
156
100
AcDbEntity
8
0
100
AcDbSpline
70
4
71
5
72
21
73
15
74
0
42
0.000000001
43
0.0000000001
44
0.0000000001
40
0.046655410207819714
40
0.046655410207819714
40
0.046655410207819714
40
0.046655410207819714
40
0.046655410207819714
40
0.046655410207819714
40
0.10000000000000001
40
0.20000000000000001
40
0.30000000000000004
40
0.40000000000000002
40
0.5
40
0.59999999999999998
40
0.69999999999999996
40
0.79999999999999993
40
0.89999999999999991
40
1
40
1
40
1
40
1
40
1
40
1
41
1
41
1
41
1
41
1
41
1
41
1
41
1
41
1
41
1
41
1
41
1
41
1
41
1
41
1
41
1
10
-17.014025492982963
20
48.413165316152167
30
0
10
-17.020384818777806
20
48.232505005998256
30
0
10
-17.023130974721411
20
47.711756483836439
30
0
10
-16.955257789172173
20
46.845392565030515
30
0
10
-16.707424295939084
20
45.630501735210956
30
0
10
-16.184947558476502
20
44.097443925810047
30
0
10
-15.482483159390936
20
42.506854791950857
30
0
10
-14.783177616125759
20
41.079839471137234
30
0
10
-14.193485928918792
20
39.85682941605647
30
0
10
-13.769769776092692
20
38.831235259091741
30
0
10
-13.495490839455808
20
37.928881539426285
30
0
10
-13.355422973362941
20
37.22673253426661
30
0
10
-13.27049893955915
20
36.671208386643826
30
0
10
-13.219078386584703
20
36.282351126341425
30
0
10
-13.194665692371375
20
36.083293773525035
30
0
0
ARC
5
157
100
AcDbEntity
8
0
100
AcDbCircle
10
-19.785430088115422
20
35.274992479707379
30
0
40
6.6401450512616638
210
0
220
0
230
1
100
AcDbArc
50
-169.64667995607059
51
6.9919253466677116
0
SPLINE
5
158
100
AcDbEntity
8
0
100
AcDbSpline
70
4
71
5
72
21
73
15
74
0
42
0.000000001
43
0.0000000001
44
0.0000000001
40
0
40
0
40
0
40
0
40
0
40
0
40
0.10000000000000001
40
0.20000000000000001
40
0.30000000000000004
40
0.40000000000000002
40
0.5
40
0.59999999999999998
40
0.69999999999999996
40
0.79999999999999993
40
0.89999999999999991
40
1
40
1
40
1
40
1
40
1
40
1
41
1
41
1
41
1
41
1
41
1
41
1
41
1
41
1
41
1
41
1
41
1
41
1
41
1
41
1
41
1
10
-26.317461736774696
20
34.081640543894629
30
0
10
-26.361842381497542
20
34.324566178167053
30
0
10
-26.435246023169697
20
34.813906180308734
30
0
10
-26.49928126016389
20
35.55838163639973
30
0
10
-26.49594347607399
20
36.56849052645358
30
0
10
-26.362891214464366
20
37.841554562118382
30
0
10
-26.125947568609185
20
39.102576043818935
30
0
10
-25.813670940010184
20
40.331501796731864
30
0
10
-25.457080207811039
20
41.516649840290071
30
0
10
-25.089959277959014
20
42.662768532078246
30
0
10
-24.745714474674472
20
43.784871823928526
30
0
10
-24.512262822275012
20
44.678073433896621
30
0
10
-24.370634732571762
20
45.352661283554525
30
0
10
-24.292343224164583
20
45.805469799099328
30
0
10
-24.257229604798113
20
46.032645122027105
30
0
0
ARC
5
159
100
AcDbEntity
8
0
100
AcDbCircle
10
-28.386156708071116
20
46.670837566645396
30
0
40
4.1779574699259747
210
-0
220
0
230
1
100
AcDbArc
50
-8.7864578817479462
51
31.434722018948573
0
SPLINE
5
160
100
AcDbEntity
8
0
100
AcDbSpline
70
4
71
5
72
21
73
15
74
0
42
0.000000001
43
0.0000000001
44
0.0000000001
40
0
40
0
40
0
40
0
40
0
40
0
40
0.10000000000000001
40
0.20000000000000001
40
0.30000000000000004
40
0.40000000000000002
40
0.5
40
0.59999999999999998
40
0.69999999999999996
40
0.79999999999999993
40
0.89999999999999991
40
1
40
1
40
1
40
1
40
1
40
1
41
1
41
1
41
1
41
1
41
1
41
1
41
1
41
1
41
1
41
1
41
1
41
1
41
1
41
1
41
1
10
-24.821377577071182
20
48.849754354340064
30
0
10
-24.961798993238041
20
49.079488383984533
30
0
10
-25.251036440757115
20
49.537575226094631
30
0
10
-25.710070269059493
20
50.220563062524157
30
0
10
-26.35486706930546
20
51.126490479879308
30
0
10
-27.120002031268381
20
52.270249152200385
30
0
10
-27.731192575601234
20
53.447919041659048
30
0
10
-28.090692488394886
20
54.678548886776277
30
0
10
-28.152792504874444
20
55.970003244050929
30
0
10
-27.963261676704846
20
57.310706249342289
30
0
10
-27.617006881997369
20
58.678696225768746
30
0
10
-27.302544895430767
20
59.774937071576453
30
0
10
-27.087209374768818
20
60.588758358518774
30
0
10
-26.958448194461376
20
61.126307852718504
30
0
10
-26.897767220967445
20
61.393832925261115
30
0
0
ARC
5
161
100
AcDbEntity
8
0
100
AcDbCircle
10
-30.981804324512545
20
62.320188518301798
30
0
40
4.1877790949249967
210
-0
220
0
230
1
100
AcDbArc
50
-12.779789090865215
51
207.31964161248905
0
SPLINE
5
162
100
AcDbEntity
8
0
100
AcDbSpline
70
4
71
5
72
21
73
15
74
0
42
0.000000001
43
0.0000000001
44
0.0000000001
40
0
40
0
40
0
40
0
40
0
40
0
40
0.10000000000000001
40
0.20000000000000001
40
0.30000000000000004
40
0.40000000000000002
40
0.5
40
0.59999999999999998
40
0.69999999999999996
40
0.79999999999999993
40
0.89999999999999991
40
1
40
1
40
1
40
1
40
1
40
1
41
1
41
1
41
1
41
1
41
1
41
1
41
1
41
1
41
1
41
1
41
1
41
1
41
1
41
1
41
1
10
-34.702478331554069
20
60.398189901960876
30
0
10
-34.566990725273847
20
60.135908123671761
30
0
10
-34.319941940151757
20
59.640904980237281
30
0
10
-34.021144370837547
20
58.987076480459791
30
0
10
-33.756532519214602
20
58.271969430969577
30
0
10
-33.600784381483145
20
57.532185582537664
30
0
10
-33.569666156035794
20
56.825784498586046
30
0
10
-33.629787689369024
20
56.05883144788244
30
0
10
-33.781935073954486
20
55.202027062130639
30
0
10
-34.082576456299037
20
54.341413574612517
30
0
10
-34.624122434958792
20
53.635675091461508
30
0
10
-35.3327704497502
20
53.339159183897856
30
0
10
-36.059073296105709
20
53.336874114560558
30
0
10
-36.635514978250178
20
53.442859776822296
30
0
10
-36.946797616133082
20
53.522732732845888
30
0
0
ARC
5
163
100
AcDbEntity
8
0
100
AcDbCircle
10
-40.260332488415543
20
40.609151877564202
30
0
40
13.331919736321908
210
0
220
-0
230
1
100
AcDbArc
50
75.608779581146649
51
94.500091909817996
0
SPLINE
5
164
100
AcDbEntity
8
0
100
AcDbSpline
70
4
71
5
72
21
73
15
74
0
42
0.000000001
43
0.0000000001
44
0.0000000001
40
-1
40
-1
40
-1
40
-1
40
-1
40
-1
40
-0.89999999999999991
40
-0.79999999999999993
40
-0.69999999999999996
40
-0.59999999999999998
40
-0.5
40
-0.40000000000000002
40
-0.30000000000000004
40
-0.20000000000000001
40
-0.10000000000000001
40
0
40
0
40
0
40
0
40
0
40
0
41
1
41
1
41
1
41
1
41
1
41
1
41
1
41
1
41
1
41
1
41
1
41
1
41
1
41
1
41
1
10
-41.306364175434219
20
53.899972076689707
30
0
10
-41.607924251029445
20
53.87623829729263
30
0
10
-42.185007811872843
20
53.873188972724421
30
0
10
-42.972534483832618
20
54.001865713792682
30
0
10
-43.876139163896781
20
54.432511540845418
30
0
10
-44.808374856923059
20
55.362144297597389
30
0
10
-45.588606785393367
20
56.628904053793086
30
0
10
-46.241875535098238
20
58.168790095215584
30
0
10
-46.748822543321673
20
59.904012816878307
30
0
10
-47.048126448979644
20
61.748685154857881
30
0
10
-47.055794578601066
20
63.620323409667805
30
0
10
-46.755856156924324
20
65.082084128405441
30
0
10
-46.324191728139503
20
66.135284607409545
30
0
10
-45.939633055659442
20
66.815401639129121
30
0
10
-45.723156948675623
20
67.149955622649571
30
0
0
ARC
5
165
100
AcDbEntity
8
0
100
AcDbCircle
10
-48.589230687289273
20
69.004473924105454
30
0
40
3.4137394167694914
210
-0
220
0
230
1
100
AcDbArc
50
-32.905242922987966
51
215.21759296819252
0
SPLINE
5
166
100
AcDbEntity
8
0
100
AcDbSpline
70
4
71
5
72
21
73
15
74
0
42
0.000000001
43
0.0000000001
44
0.0000000001
40
-1
40
-1
40
-1
40
-1
40
-1
40
-1
40
-0.89999999999999991
40
-0.79999999999999993
40
-0.69999999999999996
40
-0.59999999999999998
40
-0.5
40
-0.40000000000000002
40
-0.30000000000000004
40
-0.20000000000000001
40
-0.10000000000000001
40
0
40
0
40
0
40
0
40
0
40
0
41
1
41
1
41
1
41
1
41
1
41
1
41
1
41
1
41
1
41
1
41
1
41
1
41
1
41
1
41
1
10
-51.378146084350135
20
67.035827761474266
30
0
10
-51.082469474736847
20
66.616952564522109
30
0
10
-50.547625874667276
20
65.761969527557824
30
0
10
-49.914881750928792
20
64.427802588529175
30
0
10
-49.399315472961113
20
62.553399190584983
30
0
10
-49.241239874843963
20
60.093030562425383
30
0
10
-49.489111839285293
20
57.564621907519211
30
0
10
-50.049157358609982
20
55.012993105092399
30
0
10
-50.813582678297671
20
52.465303602524955
30
0
10
-51.660102879699117
20
49.922530505663509
30
0
10
-52.467969201141884
20
47.370904627756104
30
0
10
-52.99769745899755
20
45.305748047993369
30
0
10
-53.293903156819468
20
43.734636584382017
30
0
10
-53.441948793870523
20
42.676035399696985
30
0
10
-53.503614576510749
20
42.143936354572851
30
0
0
ARC
5
167
100
AcDbEntity
8
0
100
AcDbCircle
10
-40.260332488415543
20
40.609151877564202
30
0
40
13.331919736321913
210
0
220
0
230
1
100
AcDbArc
50
173.38939345179585
51
194.28201752903524
0
SPLINE
5
168
100
AcDbEntity
8
0
100
AcDbSpline
70
4
71
5
72
21
73
15
74
0
42
0.000000001
43
0.0000000001
44
0.0000000001
40
-1
40
-1
40
-1
40
-1
40
-1
40
-1
40
-0.89999999999999991
40
-0.79999999999999993
40
-0.69999999999999996
40
-0.59999999999999998
40
-0.5
40
-0.40000000000000002
40
-0.30000000000000004
40
-0.20000000000000001
40
-0.10000000000000001
40
0
40
0
40
0
40
0
40
0
40
0
41
1
41
1
41
1
41
1
41
1
41
1
41
1
41
1
41
1
41
1
41
1
41
1
41
1
41
1
41
1
10
-53.18020531637476
20
37.320235648000001
30
0
10
-53.103150033067365
20
37.017538834957151
30
0
10
-52.943800757180732
20
36.413179195767725
30
0
10
-52.689061708240359
20
35.509741580148848
30
0
10
-52.318266662122866
20
34.312114868359089
30
0
10
-51.806240698682544
20
32.830405879178819
30
0
10
-51.253606415900478
20
31.367666807186374
30
0
10
-50.675717417090908
20
29.925247055529198
30
0
10
-50.098752881187771
20
28.499830356195108
30
0
10
-49.56482154878357
20
27.080100479847783
30
0
10
-49.124436602753363
20
25.650251487761729
30
0
10
-48.887116255591437
20
24.485092508363479
30
0
10
-48.791961278133833
20
23.593195289801081
30
0
10
-48.767807461874682
20
22.989761954352673
30
0
10
-48.765551995973205
20
22.685836272114983
30
0
0
ARC
5
169
100
AcDbEntity
8
0
100
AcDbCircle
10
-53.894062847591265
20
22.647777029256552
30
0
40
5.1286520705787613
210
0
220
0
230
1
100
AcDbArc
50
-141.68046175725456
51
0.42519047349308059
0
SPLINE
5
170
100
AcDbEntity
8
0
100
AcDbSpline
70
4
71
5
72
21
73
15
74
0
42
0.000000001
43
0.0000000001
44
0.0000000001
40
0
40
0
40
0
40
0
40
0
40
0
40
0.10000000000000001
40
0.20000000000000001
40
0.30000000000000004
40
0.40000000000000002
40
0.5
40
0.59999999999999998
40
0.69999999999999996
40
0.79999999999999993
40
0.89999999999999991
40
1
40
1
40
1
40
1
40
1
40
1
41
1
41
1
41
1
41
1
41
1
41
1
41
1
41
1
41
1
41
1
41
1
41
1
41
1
41
1
41
1
10
-57.91782363691383
20
19.467773700415293
30
0
10
-58.172992143910477
20
19.790646643286458
30
0
10
-58.631530862157803
20
20.444976581814942
30
0
10
-59.163956868201943
20
21.452225967490325
30
0
10
-59.581979929245101
20
22.84882646677698
30
0
10
-59.723568898043609
20
24.694625786054818
30
0
10
-59.619997282130811
20
26.650143383664702
30
0
10
-59.416645814517778
20
28.717485622947599
30
0
10
-59.248831629814177
20
30.879931844693182
30
0
10
-59.230698607925731
20
33.097752657891007
30
0
10
-59.459737542226996
20
35.322369109333252
30
0
10
-59.904055397235808
20
37.068615484931058
30
0
10
-60.409674013604331
20
38.342297452727529
30
0
10
-60.826593060534179
20
39.173139289948296
30
0
10
-61.055013954304236
20
39.583990163755288
30
0
0
ARC
5
171
100
AcDbEntity
8
0
100
AcDbCircle
10
-67.409768140773934
20
36.050935414448048
30
0
40
7.2708580396027864
210
0
220
-0
230
1
100
AcDbArc
50
29.072760588908874
51
109.74457430661704
0
SPLINE
5
172
100
AcDbEntity
8
0
100
AcDbSpline
70
4
71
5
72
26
73
20
74
0
42
0.000000001
43
0.0000000001
44
0.0000000001
40
-1
40
-1
40
-1
40
-1
40
-1
40
-1
40
-0.93333333333333324
40
-0.86666666666666659
40
-0.79999999999999993
40
-0.73333333333333328
40
-0.66666666666666663
40
-0.59999999999999998
40
-0.53333333333333333
40
-0.46666666666666662
40
-0.39999999999999997
40
-0.33333333333333331
40
-0.26666666666666666
40
-0.20000000000000001
40
-0.13333333333333333
40
-0.066666666666666666
40
0
40
0
40
0
40
0
40
0
40
0
41
1
41
1
41
1
41
1
41
1
41
1
41
1
41
1
41
1
41
1
41
1
41
1
41
1
41
1
41
1
41
1
41
1
41
1
41
1
41
1
10
-69.866064594497374
20
42.894325244326041
30
0
10
-70.346586042238116
20
42.721851783460224
30
0
10
-71.280208461848261
20
42.349137463041906
30
0
10
-72.598381512747125
20
41.706770915264102
30
0
10
-74.192648292889345
20
40.709181542582201
30
0
10
-75.91961127372646
20
39.37542552965045
30
0
10
-77.388042265411201
20
38.146578497604011
30
0
10
-78.604874518346165
20
37.219170315661898
30
0
10
-79.575712738855387
20
36.752008144566034
30
0
10
-80.304733297400333
20
36.831257113411773
30
0
10
-80.794606992873014
20
37.410351891875109
30
0
10
-81.048996335150392
20
38.329470164383899
30
0
10
-81.077164911546987
20
39.406972149366446
30
0
10
-80.899451558994826
20
40.513173708318334
30
0
10
-80.551906552339176
20
41.63930983615964
30
0
10
-80.076560444362812
20
42.847218054907628
30
0
10
-79.626246241688307
20
43.955803647516561
30
0
10
-79.262816132354047
20
44.907544150027228
30
0
10
-79.010824614914966
20
45.601346881049906
30
0
10
-78.88240264402603
20
45.963075147771626
30
0
0
ARC
5
173
100
AcDbEntity
8
0
100
AcDbCircle
10
-82.575954536391265
20
47.27437221033437
30
0
40
3.9194164830852745
210
-0
220
0
230
1
100
AcDbArc
50
-19.546049013032263
51
193.64054383762618
0
SPLINE
5
174
100
AcDbEntity
8
0
100
AcDbSpline
70
4
71
5
72
21
73
15
74
0
42
0.000000001
43
0.0000000001
44
0.0000000001
40
-1
40
-1
40
-1
40
-1
40
-1
40
-1
40
-0.89999999999999991
40
-0.79999999999999993
40
-0.69999999999999996
40
-0.59999999999999998
40
-0.5
40
-0.40000000000000002
40
-0.30000000000000004
40
-0.20000000000000001
40
-0.10000000000000001
40
0
40
0
40
0
40
0
40
0
40
0
41
1
41
1
41
1
41
1
41
1
41
1
41
1
41
1
41
1
41
1
41
1
41
1
41
1
41
1
41
1
10
-86.384821389375475
20
46.350056861656945
30
0
10
-86.285744231315903
20
45.941785264997918
30
0
10
-86.062007696416288
20
45.149177267799836
30
0
10
-85.649687860109665
20
44.032055653811675
30
0
10
-84.981231307756559
20
42.667978687212162
30
0
10
-84.133888379802926
20
41.072991613719921
30
0
10
-83.487505910872883
20
39.469972017757129
30
0
10
-83.220013697646465
20
37.749697255296027
30
0
10
-83.386884343785525
20
35.849293699576499
30
0
10
-83.894276401117921
20
33.764940299506002
30
0
10
-84.58008355990431
20
31.52171197726301
30
0
10
-85.123977071302903
20
29.630787578275275
30
0
10
-85.460509854816863
20
28.17390960252153
30
0
10
-85.643732748746288
20
27.187656899860574
30
0
10
-85.725061392172591
20
26.690779774590911
30
0
0
LINE
5
175
100
AcDbEntity
8
0
100
AcDbLine
10
-100
20
75.000000000000014
30
0
11
-100
21
-75.000000000000014
31
0
0
LINE
5
176
100
AcDbEntity
8
0
100
AcDbLine
10
-100
20
-75.000000000000014
30
0
11
100
21
-75.000000000000014
31
0
0
LINE
5
177
100
AcDbEntity
8
0
100
AcDbLine
10
100
20
-75.000000000000014
30
0
11
100
21
75.000000000000014
31
0
0
LINE
5
178
100
AcDbEntity
8
0
100
AcDbLine
10
100
20
75.000000000000014
30
0
11
-100
21
75.000000000000014
31
0
0
SPLINE
5
179
100
AcDbEntity
8
0
100
AcDbSpline
70
4
71
5
72
21
73
15
74
0
42
0.000000001
43
0.0000000001
44
0.0000000001
40
0
40
0
40
0
40
0
40
0
40
0
40
0.10000000000000001
40
0.20000000000000001
40
0.30000000000000004
40
0.40000000000000002
40
0.5
40
0.59999999999999998
40
0.69999999999999996
40
0.79999999999999993
40
0.89999999999999991
40
1
40
1
40
1
40
1
40
1
40
1
41
1
41
1
41
1
41
1
41
1
41
1
41
1
41
1
41
1
41
1
41
1
41
1
41
1
41
1
41
1
10
-43.425872363048882
20
-57.009103884055357
30
0
10
-42.544813243812101
20
-56.801855894758049
30
0
10
-40.77719687591555
20
-56.412178271215801
30
0
10
-38.109277291723053
20
-55.902111565896405
30
0
10
-34.531020319828571
20
-55.372917602370563
30
0
10
-30.08739800946902
20
-54.974255703933252
30
0
10
-25.749173082695847
20
-54.850425292719216
30
0
10
-21.580368737393751
20
-55.003719398781989
30
0
10
-17.611132767697878
20
-55.41554447090072
30
0
10
-13.801457536038274
20
-56.023035335840767
30
0
10
-10.061683981293273
20
-56.734933696385603
30
0
10
-7.0434914107731883
20
-57.313480777305337
30
0
10
-4.7254320457003134
20
-57.718848646335857
30
0
10
-3.1504395420679661
20
-57.971989382796551
30
0
10
-2.3555363950857009
20
-58.094282174639972
30
0
0
ARC
5
180
100
AcDbEntity
8
0
100
AcDbCircle
10
-1.4431932895620507
20
-52.164051988736269
30
0
40
6.0000000000000044
210
0
220
0
230
1
100
AcDbArc
50
261.25383773744477
51
292.01128319791934
0
SPLINE
5
181
100
AcDbEntity
8
0
100
AcDbSpline
70
4
71
5
72
21
73
15
74
0
42
0.000000001
43
0.0000000001
44
0.0000000001
40
-1
40
-1
40
-1
40
-1
40
-1
40
-1
40
-0.89999999999999991
40
-0.79999999999999993
40
-0.69999999999999996
40
-0.59999999999999998
40
-0.5
40
-0.40000000000000002
40
-0.30000000000000004
40
-0.20000000000000001
40
-0.10000000000000001
40
0
40
0
40
0
40
0
40
0
40
0
41
1
41
1
41
1
41
1
41
1
41
1
41
1
41
1
41
1
41
1
41
1
41
1
41
1
41
1
41
1
10
0.80554176342249595
20
-57.726712382961196
30
0
10
1.6574209740958199
20
-57.382335680774112
30
0
10
3.3692561192475043
20
-56.741497983422533
30
0
10
5.961235962005242
20
-55.923983916593158
30
0
10
9.4546837688008605
20
-55.13001608857423
30
0
10
13.826487243518365
20
-54.672904100835225
30
0
10
18.138415236468248
20
-54.786444723566674
30
0
10
22.340606140817151
20
-55.464544029382267
30
0
10
26.421542141406782
20
-56.617088419549276
30
0
10
30.435999423182771
20
-58.013007943469745
30
0
10
34.476428497309641
20
-59.349908329627965
30
0
10
37.811665017596525
20
-60.126484998101695
30
0
10
40.409704122558736
20
-60.433370097546586
30
0
10
42.190008806566546
20
-60.500671360391166
30
0
10
43.09223199115911
20
-60.499996503160666
30
0
0
CIRCLE
5
182
100
AcDbEntity
8
0
100
AcDbCircle
10
-1.4431932895620507
20
-52.164051988736269
30
0
40
1.6000000000000014
210
0
220
-0
230
1
0
CIRCLE
5
183
100
AcDbEntity
8
0
100
AcDbCircle
10
19.247255119256479
20
68.363884180606206
30
0
40
1.6000000000000014
210
0
220
-0
230
1
0
ENDSEC
0
SECTION
2
OBJECTS
0
DICTIONARY
5
C
100
AcDbDictionary
3
ACAD_GROUP
350
D
3
ACAD_MLINESTYLE
350
17
0
DICTIONARY
5
D
100
AcDbDictionary
0
DICTIONARY
5
1A
330
C
100
AcDbDictionary
0
DICTIONARY
5
17
100
AcDbDictionary
0
ENDSEC
0
EOF
